<svg width="94" height="70" viewBox="0 0 94 70" fill="none" xmlns="http://www.w3.org/2000/svg">
<path d="M17.5 17.5C19.0471 17.5 20.5308 18.1146 21.6248 19.2085C22.7188 20.3025 23.3333 21.7862 23.3333 23.3333V64.1667C23.3333 65.7138 22.7188 67.1975 21.6248 68.2915C20.5308 69.3854 19.0471 70 17.5 70H5.83333C2.61722 70 0 67.3867 0 64.1667V23.3333C0 20.1133 2.61722 17.5 5.83333 17.5H17.5ZM52.5 0C54.0471 0 55.5308 0.614582 56.6248 1.70854C57.7188 2.80251 58.3333 4.28624 58.3333 5.83333V64.1667C58.3333 65.7138 57.7188 67.1975 56.6248 68.2915C55.5308 69.3854 54.0471 70 52.5 70H40.8333C37.6172 70 35 67.3867 35 64.1667V5.83333C35 2.61333 37.6172 0 40.8333 0H52.5ZM87.5 29.1667C89.0471 29.1667 90.5308 29.7812 91.6248 30.8752C92.7188 31.9692 93.3333 33.4529 93.3333 35V64.1667C93.3333 65.7138 92.7188 67.1975 91.6248 68.2915C90.5308 69.3854 89.0471 70 87.5 70H75.8333C74.2862 70 72.8025 69.3854 71.7085 68.2915C70.6146 67.1975 70 65.7138 70 64.1667V35C70 33.4529 70.6146 31.9692 71.7085 30.8752C72.8025 29.7812 74.2862 29.1667 75.8333 29.1667H87.5Z" fill="#10B981"/>
</svg>
